<svg width="143" height="31" viewBox="0 0 143 31" fill="none" xmlns="http://www.w3.org/2000/svg">
<path fill-rule="evenodd" clip-rule="evenodd" d="M24.5026 21.1723C25.3477 26.1644 28.2483 29.8761 33.733 30.3246C39.7293 30.8148 43.5695 27.7222 44.9458 23.2567C46.1088 19.4835 45.5911 10.1683 45.6102 5.65702C45.631 0.779486 42.4414 0.911744 40.9687 1.80315C36.9317 4.24634 43.4826 23.2003 35.9271 24.3401C28.9484 25.3928 30.3132 17.2257 30.3132 11.8155C30.3132 9.92433 30.6576 4.26762 30.0219 2.98583C29.0023 0.93089 25.4597 0.836744 24.5765 3.15159C24.1478 4.27506 24.2097 19.4416 24.5026 21.1721V21.1723Z" fill="white"/>
<path fill-rule="evenodd" clip-rule="evenodd" d="M131.667 7.24496C136.199 6.51418 136.957 9.99716 139.735 9.2428C144.868 7.84915 139.314 -0.159638 130.338 1.5597C127.358 2.13056 125.38 3.69407 124.061 5.61037C122.528 7.83586 122.168 11.3001 123.548 13.8461C126.977 20.1722 136.281 17.7728 136.963 21.1923C137.574 24.2592 133.085 25.1692 130.394 24.2477C127.719 23.3317 126.662 19.5854 123.885 20.6842C122.71 21.1493 121.825 22.3938 122.181 24.0552C123.212 28.8538 133.361 33.3154 139.468 28.1599C144.118 24.2335 144.23 17.6386 138.633 14.7666C136.029 13.4305 133.368 13.475 130.578 12.4868C127.066 11.243 128.271 7.79259 131.667 7.24477V7.24496Z" fill="white"/>
<path fill-rule="evenodd" clip-rule="evenodd" d="M6.06632 7.36471C8.44871 7.36471 14.4752 7.66628 16.4387 7.29965C19.5109 6.72594 19.7132 2.16185 16.5615 1.43391C14.8849 1.04671 8.56235 1.32062 6.41132 1.31973C2.92319 1.31813 0.12151 0.940156 0.0477588 4.9098C-0.0795335 11.7667 0.0920751 18.7336 0.0553766 25.6081C0.0255923 31.165 3.64386 30.5672 4.93043 29.545C6.84461 28.0242 6.03902 23.3199 6.06632 20.5719C9.66827 20.5719 15.9668 21.7768 15.8696 17.4807C15.7762 13.3522 9.5243 14.5401 6.06064 14.5401L6.06649 7.36506L6.06632 7.36471Z" fill="white"/>
<path fill-rule="evenodd" clip-rule="evenodd" d="M78.5676 7.11985C79.9431 7.12463 83.7302 7.2826 84.8372 7.00319C86.3866 6.6121 87.4571 4.73835 86.6428 2.9949C85.8628 1.3245 84.1434 1.31067 82.0071 1.31812L69.1974 1.31741C66.934 1.30677 65.3317 1.33779 64.6925 3.13691C62.8658 8.27966 70.6753 7.10425 72.8754 7.12712L72.8766 27.0962C72.9194 29.1278 73.7496 30.5138 75.8079 30.4135C78.0325 30.3051 78.5821 28.8484 78.5683 26.5974L78.5672 7.11985H78.5676Z" fill="white"/>
<path fill-rule="evenodd" clip-rule="evenodd" d="M113.846 19.3162C113.343 20.0932 112.974 21.2286 112.427 22.0506C110.973 24.2345 108.123 26.2419 105.121 26.5412C94.6946 27.5802 90.0296 15.6229 96.3772 8.94929C97.5034 7.76537 99.3317 6.71688 101.511 6.21339C105.575 5.27483 102.471 7.29431 107.506 4.53075L99.6762 0L99.6817 2.44975C94.8359 4.38981 91.7004 6.89611 90.1 12.0355C88.2935 17.8363 90.6939 23.3629 93.555 26.3658C96.3345 29.2833 102.314 31.7655 108.04 29.9796C112.099 28.7136 116.766 24.6743 117.461 20.3395L113.846 19.316L113.846 19.3162Z" fill="white"/>
<path fill-rule="evenodd" clip-rule="evenodd" d="M102.16 21.1726C102.964 20.6647 105.414 21.2942 107.364 21.4144C107.387 21.38 107.422 21.3219 107.43 21.3093L107.611 20.9742C108.243 21.533 107.969 20.979 108.082 21.9571L107.408 22.3751C106.182 22.028 107.552 22.217 106.207 21.8569L102.689 21.475C102.265 21.3398 102.369 21.3231 102.16 21.1728V21.1726ZM102.433 20.2046C101.092 20.8582 100.014 20.2743 98.5475 21.3024L104.514 22.2886L104.492 23.9753C103.313 23.6442 104.064 24.1696 103.722 22.5593C102.629 22.3787 101.345 22.1395 100.233 21.9344L96.9366 21.1726C97.8697 20.682 101.173 20.2044 102.433 20.2046ZM102.433 20.2046C103.014 19.8596 103.624 19.952 104.501 19.5818C100.991 18.2324 100.71 19.2761 100.32 19.4518L100.061 18.3569C100.146 18.3895 100.236 18.4404 100.312 18.4682C101.699 18.9758 101.668 18.5431 103.931 18.7L104.819 19.7254C105.451 19.535 105.555 19.3905 106.026 19.3458L106.932 19.4488C106.516 19.6681 106.96 19.5375 106.355 19.6722L102.433 20.2044V20.2046ZM109.358 18.464C109.29 18.1633 109.586 18.3516 109.664 18.5631C109.665 18.565 109.651 18.6085 109.65 18.6095C109.037 19.2441 109.433 18.796 109.358 18.464H109.358ZM98.1989 18.9747C97.5423 18.9072 97.4536 19.0295 97.1294 18.3594C97.9782 18.2206 97.8156 18.3984 98.1989 18.9747ZM99.7217 16.2475C99.0345 20.1597 99.5015 17.2118 100.094 19.6392C99.5731 19.327 99.2396 19.3109 99.1363 18.267C98.9675 16.5636 98.5147 16.9835 99.7217 16.2474V16.2475ZM97.4612 14.9969L97.5634 17.0191C97.733 17.1471 97.9243 17.2466 98.0828 17.3893C98.7624 18.0013 98.2566 17.4937 98.5913 18.0144C96.8262 17.5701 97.1678 16.8186 97.4612 14.9969ZM111.053 16.9172C110.131 17.2675 110.39 17.3692 109.595 17.0239C109.816 15.9529 110.081 16.3777 111.053 16.9172ZM98.3908 15.1462C98.1074 15.6494 98.3 15.3459 98.0161 15.7728L97.7392 16.0986C97.7862 14.9691 98.0567 15.3554 98.3908 15.1462ZM99.8571 14.9142C100.201 15.0273 99.984 14.7448 100.52 15.2629C100.296 15.4017 100.675 15.5001 100.033 15.4425C99.2756 15.3746 99.9433 15.5473 99.7181 15.0984L98.7515 15.0824L99.5298 14.438C98.3798 14.1884 99.2203 14.3522 98.9852 14.1155L99.8248 14.2502L99.8571 14.9142ZM106.321 15.4762C106.536 15.3733 106.663 15.4212 106.924 15.1866L107.297 15.6667L107.788 16.394C108.176 15.8178 107.738 16.278 108.332 15.9729C108.399 15.9387 108.837 15.8192 108.915 15.7928C108.122 17.1833 108.938 16.0032 109.069 18.2406C109.172 20.0057 108.842 19.8658 108.088 20.9036L108.505 19.7938C107.131 18.9019 107.568 19.4786 107.178 18.645C106.85 17.9436 106.81 17.816 106.435 17.1827C106.396 17.1788 106.333 17.1833 106.318 17.1863C106.303 17.1891 106.223 17.1959 106.207 17.2001L105.787 17.4013L105.084 17.496C105.137 17.4247 105.387 17.046 105.398 17.0313C105.537 16.8581 105.539 17.3878 105.725 16.6805C105.758 16.5539 105.851 16.5564 105.915 16.4952C105.618 14.1901 106.36 14.1048 107.093 12.4568L106.321 15.4762ZM98.9388 11.4813L100.173 12.5617C99.9562 12.455 99.4713 12.2545 99.3836 12.1841C98.8281 11.7379 99.157 12.2531 98.9386 11.4812L98.9388 11.4813ZM100.482 10.5713C100.715 10.7186 100.791 9.90118 100.873 11.2706L100.482 10.5713ZM100.482 10.5713C99.9686 10.4174 100.277 10.5369 99.8422 10.2331C99.1632 9.75864 99.977 10.1822 99.2293 9.80137C99.6291 9.60458 99.9195 9.45016 100.208 9.22235L100.482 10.5713H100.482ZM98.9388 11.4813L98.5345 11.1025C97.8568 10.6275 98.8288 10.8573 98.2716 11.0115L98.9854 14.1155L98.1972 13.8439C98.0225 13.3725 98.1161 13.462 98.0061 13.028C97.988 12.9566 97.9787 12.877 97.9607 12.8122L97.7063 12.2462C97.6013 14.0586 95.2943 18.5266 95.899 20.3133C96.4353 21.8977 99.1464 24.1383 101.333 24.7479C105.345 25.8665 109.6 23.9774 111.373 20.7092C112.296 19.0059 111.445 20.3567 111.432 19.2141C111.425 18.6179 111.82 18.1637 112.01 17.479C111.582 16.6498 111.284 16.9457 110.888 15.6963C110.673 15.0154 110.637 14.2706 110.076 13.7841C109.352 13.3884 109.953 13.7639 109.463 13.3748C109.404 13.3273 109.074 12.9752 109.015 12.9188L108.049 14.5002L109.015 12.0121C108.011 11.7804 108.237 11.8295 107.795 11.2179L107.45 11.8661C106.833 11.9591 106.582 11.7721 106.447 12.3779C106.075 12.8241 105.995 13.0346 105.518 13.4934L105.501 13.2817L105.27 13.1684C104.665 13.4436 105.068 12.5945 104.586 13.9682C104.144 15.2292 104.228 16.3732 104.016 17.437L105.085 17.496C104.394 17.8933 103.835 17.5857 103.267 17.3444C102.624 17.0714 102.306 16.9629 101.786 16.4348C101.017 17.2499 101.17 17.4797 100.336 17.6768L100.967 16.2523C100.922 16.1463 100.83 16.0247 100.803 15.9167C100.657 15.3264 100.712 15.6659 100.956 14.937C101.003 14.9856 101.062 15.054 101.093 15.0877L101.602 15.6307C101.819 15.8297 101.891 15.8614 102.194 16.0518C104.516 15.459 103.97 15.1983 104.697 13.2934L104.404 13.0562C103.845 12.5009 103.966 12.4734 103.721 11.7425C103.106 11.0411 103.637 11.5854 103.323 10.6176L103.133 10.2364C103.118 10.132 103.048 10.1258 103.002 10.0733C103.178 10.7101 102.855 12.138 102.687 12.4647C102.394 13.0351 102.451 12.8115 102.049 13.1234C102.238 11.0167 102.751 10.6834 102.247 10.3586L101.702 12.4126C101.794 11.0903 102.407 9.56025 100.964 9.22837L100.563 8.93036C99.569 8.94295 99.3903 9.33812 98.6088 9.86058L98.9391 11.4821L98.9388 11.4813Z" fill="#FAFAF9"/>
<path fill-rule="evenodd" clip-rule="evenodd" d="M56.9371 10.6237L56.8898 11.6157C54.0613 11.6596 56.2829 11.3304 54.72 10.5447C54.002 10.1837 54.1706 10.4479 53.7387 10.5723L53.0162 10.8308C53.004 14.5226 53.0191 18.2186 53.0191 21.9113C53.0191 25.1005 52.103 30.0941 55.9058 30.1393C59.7771 30.1854 58.8501 25.1998 58.8501 21.9113C58.8501 18.2366 58.9149 14.5026 58.8382 10.8354C57.5729 10.32 58.523 10.3722 56.9371 10.6237Z" fill="white"/>
<path fill-rule="evenodd" clip-rule="evenodd" d="M107.473 7.3385L107.672 9.09365C107.4 10.3332 107.674 9.35709 107.294 9.80598L106.809 10.1666C107.487 10.5513 107.113 10.1793 107.44 10.8782L107.895 10.235C108.01 10.8885 107.733 10.2935 108.076 10.9158C108.337 11.3881 108.111 10.9493 108.439 11.2716C108.932 11.7569 108.668 11.3115 109.016 12.0125L108.05 14.5005L109.016 12.9191L109.496 12.6412C109.549 12.7025 109.697 12.8493 109.741 12.9138C110.175 13.5524 110.129 12.34 110.078 13.7845C110.638 14.271 110.674 15.0156 110.89 15.6967C111.286 16.946 111.584 16.6502 112.011 17.4793C111.822 18.164 111.426 18.6182 111.433 19.2145C111.447 20.3571 112.298 19.0063 111.374 20.7095C109.602 23.9778 105.346 25.867 101.334 24.7483C99.1478 24.1386 96.4367 21.8981 95.9004 20.3136C95.2957 18.5269 97.6027 14.0589 97.7077 12.2465C97.7605 11.9324 97.7488 11.7891 97.8853 11.4938C98.0493 11.1388 98.1066 11.1925 98.273 11.0119C98.8304 10.8576 97.8582 10.6279 98.5359 11.1028L98.9402 11.4817L98.6099 9.86022C99.3914 9.33794 99.5701 8.94259 100.564 8.93C100.962 8.62861 101.306 8.4827 101.954 8.41817C103.294 8.28503 102.766 8.8091 103.213 8.19781C103.937 8.63447 103.843 7.57181 103.797 8.85076C104.488 6.92365 104.38 7.31191 106.733 6.95503C106.647 6.97081 97.5135 4.61252 94.586 13.0861C90.4295 25.1167 108.422 31.5063 112.866 19.5293C114.941 13.9377 111.322 8.70237 107.473 7.3385H107.473Z" fill="#E6D5E3"/>
<path fill-rule="evenodd" clip-rule="evenodd" d="M56.9375 10.6238L56.9184 9.62795C58.3196 9.3083 57.6404 9.01826 58.7104 9.69125L59.7665 8.78336C58.5169 6.71938 60.2155 7.34679 60.5701 6.39848L59.6073 6.11873C59.392 6.09604 58.8646 6.12175 58.6134 6.11802C58.3485 6.43643 58.5783 6.12264 58.3124 6.59511C56.7494 9.37143 54.8648 8.29032 54.3307 7.48243C54.3273 7.47728 53.6547 5.0871 51.6887 6.39867C52.0566 7.2594 52.4472 6.47418 52.7971 7.53613C53.0741 8.37683 52.7634 7.92883 52.4624 8.86047C54.3151 10.121 52.8104 9.48044 54.2236 9.39907C54.8515 9.3629 54.7769 9.39163 55.1604 9.7962C55.8303 10.503 54.4473 10.4706 56.9375 10.6236V10.6238Z" fill="white"/>
<path fill-rule="evenodd" clip-rule="evenodd" d="M57.0853 0.610765L56.3092 0.487564C56.3856 1.84452 56.3686 0.859502 56.0527 1.28215C55.6984 0.347673 56.2237 0.832736 55.4134 0.38739C55.0565 1.0141 55.1451 0.907555 55.1527 2.27462C54.2633 1.01251 55.3198 1.59703 54.4285 1.29723C53.3304 2.06578 52.7237 2.37868 52.4679 4.17762L59.7431 4.18435C59.3951 2.46076 58.7774 2.19643 57.8631 1.27454C56.9561 1.57398 57.5199 2.86073 57.1781 2.09804C57.1591 2.05567 57.124 2.23525 57.0802 2.29553L57.0853 0.610765Z" fill="white"/>
<path fill-rule="evenodd" clip-rule="evenodd" d="M103.796 8.85058C103.625 9.82194 103.779 10.2662 104.024 11.3901C104.2 12.2478 104.17 12.2717 105.054 12.4394C105.343 12.2933 105.108 12.6199 105.02 12.3279C105.017 12.3199 104.988 12.2632 104.986 12.254L104.976 12.0762C104.976 12.0666 104.989 12.0111 105.005 11.9829L105.281 11.3365C106.328 11.7558 106.125 11.4996 107.044 11.353L107.439 10.878C107.112 10.1792 107.486 10.5511 106.808 10.1664L107.293 9.80581C107.673 9.35709 107.4 10.3331 107.671 9.09347L107.472 7.33833C107.281 6.80611 108.27 6.81408 106.732 6.95503C104.379 7.31191 104.487 6.92347 103.796 8.85076L103.796 8.85058Z" fill="#FEFAFE"/>
<path fill-rule="evenodd" clip-rule="evenodd" d="M107.789 16.394C108.068 16.5853 108.174 16.4299 108.312 16.9541L107.789 16.394ZM105.916 16.4955L106.05 17.3088L105.788 17.4014L106.208 17.2002C106.224 17.1959 106.304 17.1892 106.319 17.1863C106.334 17.1833 106.397 17.1789 106.436 17.1828C106.811 17.8161 106.851 17.9437 107.179 18.6451C107.569 19.4787 107.132 18.9019 108.506 19.7939L108.089 20.9037C108.843 19.8659 109.173 20.0057 109.07 18.2407C108.939 16.0033 108.123 17.1833 108.916 15.7929C108.838 15.8193 108.4 15.9388 108.333 15.973C107.739 16.2781 108.177 15.8179 107.789 16.394L107.298 15.6668C106.128 15.868 107.417 16.502 106.209 16.248C106.049 15.8347 106.221 15.8398 106.229 15.6601C106.233 15.565 106.292 15.5379 106.322 15.4762L107.095 12.4568C106.361 14.1049 105.619 14.1904 105.916 16.4953V16.4955Z" fill="#4B0B43"/>
<path fill-rule="evenodd" clip-rule="evenodd" d="M53.4334 4.48079C52.1532 4.46094 51.955 4.15778 51.6927 5.16761L52.6879 5.47113C52.985 5.49382 53.6014 5.45553 53.9347 5.45252C54.6724 5.44578 55.4135 5.45127 56.1517 5.45039C57.4255 5.44897 59.671 5.78758 60.5598 5.16761C60.4091 4.57405 61.1255 4.45545 58.6206 4.48576L53.4334 4.48079Z" fill="#E6D5E3"/>
<path fill-rule="evenodd" clip-rule="evenodd" d="M118.126 17.4916L114.079 17.2861L113.934 18.8161L117.744 19.8433L118.126 17.4916Z" fill="white"/>
<path fill-rule="evenodd" clip-rule="evenodd" d="M105.088 17.4961L104.02 17.4371C104.231 16.3733 104.147 15.2295 104.589 13.9683C105.071 12.5946 104.668 13.4437 105.273 13.1685C105.092 12.383 105.341 12.7879 105.057 12.4393C104.173 12.2716 104.203 12.2477 104.027 11.39C103.579 11.39 103.691 11.2827 103.724 11.7419C103.969 12.4728 103.848 12.5003 104.407 13.0556L104.7 13.2928C103.973 15.1977 104.52 15.4585 102.197 16.0512C101.894 15.8608 101.822 15.8292 101.605 15.6301L101.096 15.0871C101.065 15.0534 101.006 14.985 100.959 14.9364C100.715 15.6652 100.66 15.3258 100.806 15.9161C100.833 16.0239 100.925 16.1455 100.97 16.2517L100.339 17.6762C101.173 17.4793 101.02 17.2495 101.789 16.4342C102.309 16.9623 102.627 17.071 103.27 17.3438C103.838 17.5851 104.397 17.8927 105.088 17.4954L105.088 17.4961Z" fill="#551948"/>
<path fill-rule="evenodd" clip-rule="evenodd" d="M114.255 16.6801L118.178 16.9208L118.082 14.8856C117.439 14.9147 116.763 15.0134 116.057 15.0843L114.373 15.418C114.337 15.3602 114.246 15.4756 114.176 15.5096L114.255 16.6801H114.255Z" fill="white"/>
<path fill-rule="evenodd" clip-rule="evenodd" d="M100.564 8.92987L100.965 9.2279C100.965 8.65633 100.853 8.81323 101.456 8.97456C101.655 9.45536 101.508 9.16532 101.891 9.71615C102.674 8.98272 102.238 9.21779 102.834 9.10574C102.316 9.48478 102.326 9.54258 102.249 10.3579C102.753 10.6827 102.239 11.0162 102.05 13.1227C102.452 12.8109 102.395 13.0344 102.688 12.4641C102.856 12.1374 103.178 10.7095 103.003 10.0727C103.049 10.1251 103.119 10.1314 103.134 10.2358L103.324 10.6169C103.638 11.5848 103.107 11.0405 103.722 11.7418C103.689 11.2825 103.577 11.3899 104.025 11.3899C103.78 10.2661 103.626 9.82182 103.797 8.85046C103.843 7.57151 103.937 8.63417 103.213 8.19751C102.766 8.80879 103.294 8.28473 101.954 8.41787C101.306 8.48222 100.962 8.62813 100.564 8.9297V8.92987Z" fill="white"/>
<path fill-rule="evenodd" clip-rule="evenodd" d="M114.002 14.5245C114.746 14.9461 116.607 14.4072 118.039 14.3111L117.621 12.643C116.967 12.8266 116.1 13.0715 115.438 13.2358C114.071 13.5746 113.979 13.2498 114.002 14.5245Z" fill="#E6D5E3"/>
<path fill-rule="evenodd" clip-rule="evenodd" d="M102.437 20.2045C101.177 20.2042 97.8738 20.682 96.9409 21.1725L100.237 21.9343C101.349 22.1394 102.633 22.3786 103.726 22.5593C104.068 24.1696 103.318 23.6441 104.496 23.9753L104.518 22.2885L98.5518 21.3023C100.019 20.2742 101.096 20.8582 102.437 20.2045Z" fill="#796678"/>
<path fill-rule="evenodd" clip-rule="evenodd" d="M113.579 12.8006C114.513 13.3436 116.389 12.3115 117.529 12.0777L116.971 10.817C116.204 11.0251 115.752 11.2609 115.032 11.5921C113.381 12.3519 113.623 11.9365 113.579 12.8006H113.579Z" fill="#E6D5E3"/>
<path fill-rule="evenodd" clip-rule="evenodd" d="M113.004 11.2467C113.301 11.5137 112.516 11.9791 114.051 11.3912L116.779 10.1419L116.287 9.13327C115.738 9.38395 112.954 10.8888 113.004 11.2469V11.2467Z" fill="white"/>
<path fill-rule="evenodd" clip-rule="evenodd" d="M102.161 21.1724C102.37 21.3228 102.266 21.3394 102.69 21.4747L106.208 21.8566C107.552 22.2166 106.183 22.0276 107.409 22.3748L108.082 21.9567C107.97 20.9786 108.244 21.5327 107.611 20.9738L107.43 21.3089C107.423 21.3217 107.388 21.3798 107.365 21.4141C105.415 21.2939 102.965 20.6643 102.161 21.1722V21.1724Z" fill="white"/>
<path fill-rule="evenodd" clip-rule="evenodd" d="M112.237 10.457C113.209 10.2705 113.614 9.88971 114.347 9.44046C116.215 8.29519 115.597 9.00009 115.735 8.08813C115 7.65856 115.428 7.62044 114.614 8.19839C113.691 8.85454 112.62 9.58832 112.237 10.457Z" fill="white"/>
<path fill-rule="evenodd" clip-rule="evenodd" d="M102.434 20.2044L106.356 19.6721C106.961 19.5374 106.517 19.6681 106.933 19.4488L106.027 19.3458C105.556 19.3904 105.451 19.5349 104.82 19.7253L103.932 18.6999C101.668 18.543 101.699 18.9756 100.312 18.4682C100.237 18.4403 100.147 18.3895 100.062 18.3568L100.32 19.4518C100.711 19.2761 100.991 18.2324 104.502 19.5817C103.625 19.9519 103.015 19.8595 102.434 20.2045V20.2044Z" fill="#897688"/>
<path fill-rule="evenodd" clip-rule="evenodd" d="M111.652 9.49761C112.323 9.26501 112.803 8.72942 113.402 8.2534L114.61 7.25261C115.02 6.42805 114.654 7.09572 114.587 6.82359C114.203 6.66084 115.155 6.24881 113.954 6.79078L112.803 7.89902C111.391 9.31395 111.628 8.62447 111.652 9.49761H111.652Z" fill="#4A0434"/>
<path fill-rule="evenodd" clip-rule="evenodd" d="M110.7 8.64894C111.641 8.33053 111.808 8.0084 112.46 7.30351C114.439 5.16383 113.432 5.75721 113.326 5.56024C112.677 5.6597 110.896 8.24508 110.7 8.64894Z" fill="white"/>
<path fill-rule="evenodd" clip-rule="evenodd" d="M97.7072 12.2464L97.9616 12.8124C97.9795 12.8771 97.9887 12.9567 98.0069 13.0282C98.1169 13.4622 98.0234 13.3727 98.1981 13.8441L98.9863 14.1157L98.2725 11.0117C98.106 11.1924 98.0488 11.1387 97.8848 11.4936C97.7483 11.789 97.7602 11.9322 97.7072 12.2464Z" fill="#95708D"/>
<path fill-rule="evenodd" clip-rule="evenodd" d="M109.822 7.88577C110.639 7.53031 112.222 5.39045 112.475 4.74193C111.264 4.47192 112.114 4.28152 111.507 5.10892L109.822 7.88577Z" fill="white"/>
<path fill-rule="evenodd" clip-rule="evenodd" d="M100.097 19.6396C99.5042 17.212 99.0374 20.1599 99.7244 16.2479C98.5174 16.984 98.9702 16.5642 99.139 18.2676C99.2423 19.3114 99.5758 19.3276 100.097 19.6398V19.6396Z" fill="#9A8697"/>
<path fill-rule="evenodd" clip-rule="evenodd" d="M107.443 10.8778L107.048 11.3527C107.697 11.7107 107.138 11.3323 107.454 11.8662L107.799 11.218C108.241 11.8296 108.015 11.7804 109.019 12.0123C108.67 11.3113 108.934 11.7566 108.441 11.2714C108.114 10.9489 108.34 11.3877 108.079 10.9156C107.736 10.2931 108.013 10.8883 107.898 10.2348L107.443 10.878V10.8778Z" fill="#A37798"/>
<path fill-rule="evenodd" clip-rule="evenodd" d="M105.056 12.4393C105.34 12.7878 105.091 12.3827 105.272 13.1685L105.504 13.2818C106.126 12.0158 105.473 12.5529 106.45 12.3781C106.3 11.5424 106.749 12.0856 106.149 11.8596L105.007 11.9829C104.991 12.0111 104.978 12.0666 104.979 12.0762L104.988 12.254C104.99 12.2632 105.019 12.32 105.022 12.328C105.11 12.6199 105.345 12.2936 105.056 12.4395V12.4393Z" fill="#C9B7C8"/>
<path fill-rule="evenodd" clip-rule="evenodd" d="M102.25 10.3581C102.327 9.5428 102.317 9.48499 102.836 9.10595C102.239 9.21817 102.675 8.98292 101.892 9.71636C101.509 9.16535 101.656 9.45539 101.457 8.97476C100.854 8.81343 100.966 8.65653 100.966 9.22811C102.409 9.55981 101.796 11.09 101.704 12.4124L102.25 10.3583V10.3581Z" fill="white"/>
<path fill-rule="evenodd" clip-rule="evenodd" d="M105.009 11.9829L106.15 11.8595C106.75 12.0855 106.301 11.5423 106.451 12.3781C106.586 11.7723 106.837 11.9593 107.454 11.8662C107.138 11.3324 107.697 11.7108 107.047 11.3528C106.129 11.4994 106.332 11.7554 105.285 11.3363L105.009 11.9827V11.9829Z" fill="white"/>
<path fill-rule="evenodd" clip-rule="evenodd" d="M98.594 18.0145C98.2593 17.4938 98.7653 18.0013 98.0856 17.3893C97.9271 17.2465 97.7358 17.1472 97.5661 17.0192L97.464 14.997C97.1706 16.8188 96.8291 17.5702 98.594 18.0145Z" fill="white"/>
<path fill-rule="evenodd" clip-rule="evenodd" d="M109.597 17.0239C110.392 17.3693 110.133 17.2673 111.055 16.9172C110.083 16.3777 109.818 15.9531 109.597 17.0239Z" fill="white"/>
<path fill-rule="evenodd" clip-rule="evenodd" d="M100.484 10.5715L100.21 9.22253C99.9208 9.45035 99.6306 9.60477 99.2308 9.80156C99.9785 10.1824 99.1647 9.75866 99.8437 10.2333C100.279 10.5371 99.9701 10.4176 100.484 10.5715H100.484Z" fill="white"/>
<path fill-rule="evenodd" clip-rule="evenodd" d="M106.324 15.4764C106.294 15.5381 106.235 15.5653 106.231 15.6603C106.223 15.8401 106.051 15.8347 106.21 16.2482C107.419 16.5022 106.13 15.8682 107.3 15.667L106.927 15.1869C106.666 15.4215 106.539 15.3736 106.324 15.4764Z" fill="#B196B4"/>
<path fill-rule="evenodd" clip-rule="evenodd" d="M99.7214 15.0986L99.8602 14.9144L99.8279 14.2504L98.9883 14.1157C99.2236 14.3523 98.3829 14.1885 99.5329 14.4382L98.7546 15.0826L99.7212 15.0986H99.7214Z" fill="#85687C"/>
<path fill-rule="evenodd" clip-rule="evenodd" d="M109.017 12.9188C109.076 12.9752 109.406 13.3273 109.466 13.3748C109.955 13.7639 109.354 13.3884 110.079 13.7841C110.13 12.3396 110.175 13.5522 109.742 12.9135C109.698 12.8489 109.549 12.702 109.497 12.6408L109.017 12.9188Z" fill="#B196B4"/>
<path fill-rule="evenodd" clip-rule="evenodd" d="M105.087 17.4958L105.789 17.4011L106.052 17.3086L105.918 16.4952C105.854 16.5562 105.76 16.5539 105.727 16.6804C105.541 17.3878 105.539 16.8581 105.401 17.0313C105.389 17.046 105.14 17.4247 105.087 17.496V17.4958Z" fill="white"/>
<path fill-rule="evenodd" clip-rule="evenodd" d="M98.2009 18.9749C97.8176 18.3983 97.9802 18.2207 97.1313 18.3595C97.4558 19.0296 97.5444 18.9075 98.2009 18.9749Z" fill="#716970"/>
<path fill-rule="evenodd" clip-rule="evenodd" d="M105.502 13.2816L105.519 13.4933C105.996 13.0345 106.076 12.8241 106.449 12.3778C105.472 12.5526 106.124 12.0156 105.502 13.2815V13.2816Z" fill="white"/>
<path fill-rule="evenodd" clip-rule="evenodd" d="M99.8609 14.9142L99.7221 15.0985C99.9472 15.5473 99.2796 15.3747 100.037 15.4426C100.679 15.5002 100.3 15.4018 100.524 15.263C99.988 14.7449 100.205 15.0272 99.8611 14.9142H99.8609Z" fill="white"/>
<path fill-rule="evenodd" clip-rule="evenodd" d="M98.9407 11.4814C99.1591 12.2531 98.8302 11.7381 99.3857 12.1843C99.4734 12.2547 99.9583 12.4552 100.175 12.5619L98.9408 11.4815L98.9407 11.4814Z" fill="white"/>
<path fill-rule="evenodd" clip-rule="evenodd" d="M56.0516 1.28207C56.3676 0.859413 56.3846 1.84443 56.3082 0.487476L57.0843 0.610694C56.7886 0.243178 57.5866 0.238916 56.3973 0.307349L56.0516 1.28226V1.28207Z" fill="#B79AB6"/>
<path fill-rule="evenodd" clip-rule="evenodd" d="M97.7417 16.0988L98.0186 15.7729C98.3025 15.3462 98.1099 15.6495 98.3932 15.1464C98.0592 15.3556 97.7887 14.9691 97.7417 16.0988Z" fill="#211421"/>
<path fill-rule="evenodd" clip-rule="evenodd" d="M100.486 10.5716L100.877 11.2708C100.795 9.90165 100.719 10.7191 100.486 10.5716Z" fill="white"/>
<path fill-rule="evenodd" clip-rule="evenodd" d="M109.36 18.4642C109.435 18.7964 109.039 19.2443 109.652 18.6097C109.653 18.6085 109.667 18.5652 109.667 18.5633C109.589 18.3518 109.293 18.1635 109.36 18.4642H109.36Z" fill="white"/>
<path fill-rule="evenodd" clip-rule="evenodd" d="M107.792 16.394L108.315 16.954C108.178 16.4298 108.071 16.5853 107.792 16.394Z" fill="#C19AB8"/>
</svg>
