<svg width="21" height="22" viewBox="0 0 21 22" fill="none" xmlns="http://www.w3.org/2000/svg">
<path d="M6.38678 9.12673L10.8199 4.67694C11.3892 4.10542 11.4194 3.14637 10.8873 2.53483C10.3552 1.92329 9.4623 1.89085 8.89293 2.46236L2.746 8.63246C2.72843 8.65021 2.72843 8.65022 2.71109 8.66822C1.78053 9.64146 1.76072 11.2407 2.66684 12.2401L8.84544 19.0553C9.38912 19.655 10.2825 19.6677 10.8408 19.0838C11.3991 18.4999 11.411 17.5403 10.8674 16.9407L6.5313 12.1579H17.5889C18.3682 12.1579 19 11.4793 19 10.6423C19 9.80528 18.3682 9.12673 17.5889 9.12673H6.38678Z" fill="black"/>
<mask id="mask0_266_1471" style="mask-type:alpha" maskUnits="userSpaceOnUse" x="2" y="2" width="17" height="18">
<path d="M6.38678 9.12673L10.8199 4.67694C11.3892 4.10542 11.4194 3.14637 10.8873 2.53483C10.3552 1.92329 9.4623 1.89085 8.89293 2.46236L2.746 8.63246C2.72843 8.65021 2.72843 8.65022 2.71109 8.66822C1.78053 9.64146 1.76072 11.2407 2.66684 12.2401L8.84544 19.0553C9.38912 19.655 10.2825 19.6677 10.8408 19.0838C11.3991 18.4999 11.411 17.5403 10.8674 16.9407L6.5313 12.1579H17.5889C18.3682 12.1579 19 11.4793 19 10.6423C19 9.80528 18.3682 9.12673 17.5889 9.12673H6.38678Z" fill="white"/>
</mask>
<g mask="url(#mask0_266_1471)">
<path fill-rule="evenodd" clip-rule="evenodd" d="M0 -0.000197062H21V21.5674H0L0 -0.000197062Z" fill="white"/>
</g>
</svg>
