<svg width="20" height="22" viewBox="0 0 20 22" fill="none" xmlns="http://www.w3.org/2000/svg">
<path fill-rule="evenodd" clip-rule="evenodd" d="M7.60508 0.219971H2.34421C1.5518 0.219971 0.909424 0.958701 0.909424 1.86997V7.91997C0.909424 8.83124 1.5518 9.56997 2.34421 9.56997H7.60508C8.39749 9.56997 9.03986 8.83124 9.03986 7.91997V1.86997C9.03986 0.958701 8.39749 0.219971 7.60508 0.219971ZM7.60512 7.92H2.34425V1.87H7.60512V7.92Z" fill="#57246F"/>
<path fill-rule="evenodd" clip-rule="evenodd" d="M18.127 0.219971H12.8662C12.0738 0.219971 11.4314 0.958701 11.4314 1.86997V7.91997C11.4314 8.83124 12.0738 9.56997 12.8662 9.56997H18.127C18.9195 9.56997 19.5618 8.83124 19.5618 7.91997V1.86997C19.5618 0.958701 18.9195 0.219971 18.127 0.219971ZM18.1268 7.92H12.8659V1.87H18.1268V7.92Z" fill="#57246F"/>
<path fill-rule="evenodd" clip-rule="evenodd" d="M7.60508 12.3199H2.34421C1.5518 12.3199 0.909424 13.0587 0.909424 13.9699V20.0199C0.909424 20.9312 1.5518 21.6699 2.34421 21.6699H7.60508C8.39749 21.6699 9.03986 20.9312 9.03986 20.0199V13.9699C9.03986 13.0587 8.39749 12.3199 7.60508 12.3199ZM7.60512 20.02H2.34425V13.97H7.60512V20.02Z" fill="#57246F"/>
<path fill-rule="evenodd" clip-rule="evenodd" d="M18.127 12.3199H12.8662C12.0738 12.3199 11.4314 13.0587 11.4314 13.9699V20.0199C11.4314 20.9312 12.0738 21.6699 12.8662 21.6699H18.127C18.9195 21.6699 19.5618 20.9312 19.5618 20.0199V13.9699C19.5618 13.0587 18.9195 12.3199 18.127 12.3199ZM18.1268 20.02H12.8659V13.97H18.1268V20.02Z" fill="#57246F"/>
</svg>
