<svg width="42" height="38" viewBox="0 0 42 38" fill="none" xmlns="http://www.w3.org/2000/svg">
<rect width="42" height="37.8" rx="10" fill="#57246F"/>
<path fill-rule="evenodd" clip-rule="evenodd" d="M17.1304 8.29797H11.6503C10.8249 8.29797 10.1558 8.96283 10.1558 9.78297V15.228C10.1558 16.0481 10.8249 16.713 11.6503 16.713H17.1304C17.9558 16.713 18.625 16.0481 18.625 15.228V9.78297C18.625 8.96283 17.9558 8.29797 17.1304 8.29797ZM17.1305 15.228H11.6504V9.783H17.1305V15.228Z" fill="white"/>
<path fill-rule="evenodd" clip-rule="evenodd" d="M28.0908 8.29797H22.6108C21.7854 8.29797 21.1162 8.96283 21.1162 9.78297V15.228C21.1162 16.0481 21.7854 16.713 22.6108 16.713H28.0908C28.9163 16.713 29.5854 16.0481 29.5854 15.228V9.78297C29.5854 8.96283 28.9163 8.29797 28.0908 8.29797ZM28.0909 15.228H22.6108V9.783H28.0909V15.228Z" fill="white"/>
<path fill-rule="evenodd" clip-rule="evenodd" d="M17.1304 19.188H11.6503C10.8249 19.188 10.1558 19.8528 10.1558 20.673V26.118C10.1558 26.9381 10.8249 27.603 11.6503 27.603H17.1304C17.9558 27.603 18.625 26.9381 18.625 26.118V20.673C18.625 19.8528 17.9558 19.188 17.1304 19.188ZM17.1305 26.118H11.6504V20.673H17.1305V26.118Z" fill="white"/>
<path fill-rule="evenodd" clip-rule="evenodd" d="M28.0908 19.188H22.6108C21.7854 19.188 21.1162 19.8528 21.1162 20.673V26.118C21.1162 26.9381 21.7854 27.603 22.6108 27.603H28.0908C28.9163 27.603 29.5854 26.9381 29.5854 26.118V20.673C29.5854 19.8528 28.9163 19.188 28.0908 19.188ZM28.0909 26.118H22.6108V20.673H28.0909V26.118Z" fill="white"/>
</svg>
