<svg width="42" height="42" viewBox="0 0 42 42" fill="none" xmlns="http://www.w3.org/2000/svg">
<rect width="42" height="42" rx="10" fill="#57246F"/>
<path fill-rule="evenodd" clip-rule="evenodd" d="M32.2164 18.5334C32.75 18.5334 33.1826 18.053 33.1826 17.4603V14.2922C33.1826 11.9254 31.449 10 29.318 10H16.1784C14.0474 10 12.3138 11.9254 12.3138 14.2922V14.2949H11.8224C9.96241 14.2949 8.44922 15.9694 8.44922 18.0277V28.2672C8.44922 30.3255 9.96241 32 11.8224 32H25.9448C27.8048 32 29.318 30.3255 29.318 28.2672V27.1177C31.449 27.1177 33.1826 25.1923 33.1826 22.8255C33.1826 22.2328 32.75 21.7525 32.2164 21.7525C31.6828 21.7525 31.2503 22.2328 31.2503 22.8255C31.2503 24.0088 30.3834 24.9716 29.318 24.9716V18.0277C29.318 15.9694 27.8048 14.2949 25.9448 14.2949H14.2461V14.2922C14.2461 13.1089 15.113 12.1461 16.1784 12.1461H29.318C30.3834 12.1461 31.2503 13.1089 31.2503 14.2922V17.4603C31.2503 18.053 31.6828 18.5334 32.2164 18.5334ZM11.8225 29.8539C11.0281 29.8539 10.3816 29.1422 10.3816 28.2672V19.0823L17.1042 23.7012C17.653 24.0782 18.2683 24.2666 18.8837 24.2666C19.499 24.2666 20.1144 24.0782 20.6631 23.7012L27.3858 19.0823V28.2674C27.3858 29.1422 26.7393 29.8539 25.9448 29.8539H11.8225ZM19.6465 21.8759L26.9302 16.8716C26.6722 16.6048 26.3256 16.4409 25.9448 16.4409H11.8224C11.4416 16.4409 11.095 16.6048 10.837 16.8716L18.1207 21.8759C18.5841 22.1942 19.1831 22.1942 19.6465 21.8759Z" fill="white"/>
</svg>
