<svg width="25" height="22" viewBox="0 0 25 22" fill="none" xmlns="http://www.w3.org/2000/svg">
<path fill-rule="evenodd" clip-rule="evenodd" d="M23.9756 8.53337C24.4934 8.53337 24.9131 8.05302 24.9131 7.46034V4.29215C24.9131 1.92539 23.2309 0 21.1631 0H8.41309C6.34528 0 4.66309 1.92539 4.66309 4.29215V4.29488H4.18628C2.38141 4.29488 0.913086 5.9694 0.913086 8.02766V18.2672C0.913086 20.3255 2.38141 22 4.18628 22H17.8899C19.6948 22 21.1631 20.3255 21.1631 18.2672V17.1177C23.2309 17.1177 24.9131 15.1923 24.9131 12.8255C24.9131 12.2328 24.4934 11.7525 23.9756 11.7525C23.4578 11.7525 23.0381 12.2328 23.0381 12.8255C23.0381 14.0088 22.1969 14.9716 21.1631 14.9716V8.02766C21.1631 5.9694 19.6948 4.29488 17.8899 4.29488H6.53809V4.29215C6.53809 3.10888 7.37927 2.14608 8.41309 2.14608H21.1631C22.1969 2.14608 23.0381 3.10888 23.0381 4.29215V7.46034C23.0381 8.05302 23.4578 8.53337 23.9756 8.53337ZM4.18626 19.8539C3.41538 19.8539 2.78806 19.1422 2.78806 18.2672V9.08228L9.31138 13.7012C9.84385 14.0782 10.441 14.2666 11.0381 14.2666C11.6352 14.2666 12.2323 14.0782 12.7647 13.7012L19.2881 9.08228V18.2674C19.2881 19.1422 18.6607 19.8539 17.8899 19.8539H4.18626ZM11.7783 11.8759L18.846 6.8716C18.5957 6.60481 18.2593 6.44092 17.8898 6.44092H4.18619C3.81668 6.44092 3.48032 6.60481 3.23001 6.8716L10.2977 11.8759C10.7474 12.1942 11.3286 12.1942 11.7783 11.8759Z" fill="#7B8491"/>
</svg>
