<svg width="21" height="21" viewBox="0 0 21 21" fill="none" xmlns="http://www.w3.org/2000/svg">
<path d="M14.6132 8.88653L10.1801 4.55384C9.61076 3.99736 9.58055 3.06354 10.1127 2.4681C10.6448 1.87265 11.5377 1.84106 12.1071 2.39754L18.254 8.40527C18.2716 8.42255 18.2716 8.42255 18.2889 8.44009C19.2195 9.38771 19.2393 10.9448 18.3332 11.918L12.1546 18.5538C11.6109 19.1377 10.7175 19.1501 10.1592 18.5816C9.60085 18.013 9.58896 17.0787 10.1326 16.4948L14.4687 11.8379H3.41107C2.63176 11.8379 2 11.1772 2 10.3622C2 9.54722 2.63176 8.88653 3.41107 8.88653H14.6132Z" fill="black"/>
<mask id="mask0_133_1101" style="mask-type:alpha" maskUnits="userSpaceOnUse" x="2" y="2" width="17" height="17">
<path d="M14.6132 8.88653L10.1801 4.55384C9.61076 3.99736 9.58055 3.06354 10.1127 2.4681C10.6448 1.87265 11.5377 1.84106 12.1071 2.39754L18.254 8.40527C18.2716 8.42255 18.2716 8.42255 18.2889 8.44009C19.2195 9.38771 19.2393 10.9448 18.3332 11.918L12.1546 18.5538C11.6109 19.1377 10.7175 19.1501 10.1592 18.5816C9.60085 18.013 9.58896 17.0787 10.1326 16.4948L14.4687 11.8379H3.41107C2.63176 11.8379 2 11.1772 2 10.3622C2 9.54722 2.63176 8.88653 3.41107 8.88653H14.6132Z" fill="white"/>
</mask>
<g mask="url(#mask0_133_1101)">
<path fill-rule="evenodd" clip-rule="evenodd" d="M0 -0.000215467H21V20.9998H0L0 -0.000215467Z" fill="white"/>
</g>
</svg>
