<svg width="19" height="22" viewBox="0 0 19 22" fill="none" xmlns="http://www.w3.org/2000/svg">
<path fill-rule="evenodd" clip-rule="evenodd" d="M18.728 20.6202L14.4187 15.6913C17.4382 12.1975 17.5302 6.589 14.6274 2.96667C11.7247 -0.655672 6.85653 -1.00747 3.58234 2.1685C0.308144 5.34446 -0.211083 10.9221 2.4043 14.8231C5.01968 18.7242 9.84232 19.5654 13.346 16.7318L17.7393 21.7841C18.0149 22.0794 18.4445 22.0707 18.7109 21.7644C18.9773 21.458 18.9849 20.964 18.728 20.6471V20.6202ZM2.26058 9.25537C2.26058 5.10845 5.18384 1.7467 8.78986 1.7467C12.3959 1.7467 15.3191 5.10845 15.3191 9.25537C15.3191 13.4023 12.3959 16.764 8.78986 16.764C5.18384 16.764 2.26058 13.4023 2.26058 9.25537Z" fill="#7B8491"/>
</svg>
