<svg width="39" height="38" viewBox="0 0 39 38" fill="none" xmlns="http://www.w3.org/2000/svg">
<rect x="0.381592" y="0.800049" width="38.2464" height="36.4" rx="10" fill="#57246F"/>
<path fill-rule="evenodd" clip-rule="evenodd" d="M28.3263 27.3374L23.8135 23.0657C26.9755 20.0377 27.0719 15.177 24.0321 12.0377C20.9923 8.8983 15.8942 8.59341 12.4654 11.3459C9.03658 14.0984 8.49283 18.9323 11.2317 22.3133C13.9706 25.6942 19.021 26.4233 22.6901 23.9675L27.2909 28.3461C27.5795 28.6021 28.0293 28.5945 28.3083 28.329C28.5873 28.0635 28.5953 27.6354 28.3263 27.3607V27.3374ZM11.0813 17.4878C11.0813 13.8938 14.1426 10.9803 17.9189 10.9803C21.6952 10.9803 24.7565 13.8938 24.7565 17.4878C24.7565 21.0818 21.6952 23.9954 17.9189 23.9954C14.1426 23.9954 11.0813 21.0818 11.0813 17.4878Z" fill="white"/>
</svg>
