<svg width="42" height="42" viewBox="0 0 42 42" fill="none" xmlns="http://www.w3.org/2000/svg">
<rect width="42" height="42" rx="10" fill="#57246F"/>
<path fill-rule="evenodd" clip-rule="evenodd" d="M21.8782 17.04C19.9478 17.04 18.3828 18.7911 18.3828 20.9512C18.3828 23.1112 19.9478 24.8623 21.8782 24.8623C23.8087 24.8623 25.3737 23.1112 25.3737 20.9512C25.3737 18.7911 23.8087 17.04 21.8782 17.04ZM21.8789 23.3956C20.6724 23.3956 19.6943 22.3012 19.6943 20.9512C19.6943 19.6011 20.6724 18.5067 21.8789 18.5067C23.0855 18.5067 24.0636 19.6011 24.0636 20.9512C24.0636 22.3012 23.0855 23.3956 21.8789 23.3956Z" fill="white"/>
<path fill-rule="evenodd" clip-rule="evenodd" d="M30.1807 18.0178H28.8262C28.7708 17.8516 28.7097 17.6886 28.6427 17.5289L29.5996 16.4582C30.1107 15.8856 30.1107 14.958 29.5996 14.3853L27.747 12.3124C27.2352 11.7405 26.4062 11.7405 25.8944 12.3124L24.9375 13.3831C24.7948 13.3114 24.6491 13.243 24.5006 13.1778V11.6622C24.5006 10.8522 23.9137 10.1956 23.1898 10.1956H20.5682C19.8443 10.1956 19.2574 10.8522 19.2574 11.6622V13.1778C19.1089 13.2397 18.9632 13.3081 18.8205 13.3831L17.8636 12.3124C17.3519 11.7405 16.5228 11.7405 16.011 12.3124L14.1585 14.3853C13.6473 14.958 13.6473 15.8856 14.1585 16.4582L15.1066 17.5289C15.0425 17.6886 14.9813 17.8516 14.9231 18.0178H13.5686C12.8447 18.0178 12.2578 18.6744 12.2578 19.4844V22.4178C12.2578 23.2278 12.8447 23.8844 13.5686 23.8844H14.9231C14.9784 24.0507 15.0396 24.2136 15.1066 24.3733L14.1497 25.444C13.6386 26.0166 13.6386 26.9443 14.1497 27.5169L16.0023 29.5898C16.5141 30.1617 17.3431 30.1617 17.8549 29.5898L18.8118 28.5191C18.9545 28.5908 19.1001 28.6593 19.2487 28.7244V30.24C19.2487 31.05 19.8355 31.7067 20.5595 31.7067H23.1811C23.905 31.7067 24.4918 31.05 24.4918 30.24V28.7244C24.6404 28.6625 24.786 28.5941 24.9288 28.5191L25.8856 29.5898C26.3974 30.1617 27.2265 30.1617 27.7382 29.5898L29.5908 27.5169C30.1019 26.9443 30.1019 26.0166 29.5908 25.444L28.6514 24.3733C28.7155 24.2136 28.7767 24.0507 28.8349 23.8844H30.1894C30.9133 23.8844 31.5002 23.2278 31.5002 22.4178V19.4844C31.5002 19.0938 31.3609 18.7192 31.1132 18.4439C30.8655 18.1685 30.5298 18.0152 30.1807 18.0178ZM30.1807 22.4178H27.8519C27.6967 23.2067 27.417 23.9583 27.0261 24.6373L28.6733 26.4805L26.8207 28.5533L25.156 26.7102C24.5491 27.1477 23.8774 27.4606 23.1723 27.6342V30.24H20.5508V27.6342C19.8457 27.4606 19.174 27.1477 18.5671 26.7102L16.9199 28.5533L15.0673 26.4805L16.7145 24.6373C16.3235 23.9583 16.0439 23.2067 15.8887 22.4178H13.5774V19.4845H15.9062C16.0614 18.6956 16.341 17.944 16.732 17.2649L15.0848 15.4218L16.9374 13.3489L18.5846 15.192C19.1915 14.7545 19.8632 14.4416 20.5682 14.268V11.6622H23.1898V14.268C23.8949 14.4416 24.5666 14.7545 25.1735 15.192L26.8207 13.3489L28.6733 15.4218L27.0261 17.2649C27.417 17.944 27.6967 18.6956 27.8519 19.4845H30.1807V22.4178Z" fill="white"/>
</svg>
