<svg width="20" height="22" viewBox="0 0 20 22" fill="none" xmlns="http://www.w3.org/2000/svg">
<path fill-rule="evenodd" clip-rule="evenodd" d="M9.96322 7.04004C8.08492 7.04004 6.56226 8.7911 6.56226 10.9512C6.56226 13.1112 8.08492 14.8623 9.96322 14.8623C11.8415 14.8623 13.3642 13.1112 13.3642 10.9512C13.3642 8.7911 11.8415 7.04004 9.96322 7.04004ZM9.96304 13.3956C8.7891 13.3956 7.83744 12.3012 7.83744 10.9512C7.83744 9.60113 8.7891 8.50671 9.96304 8.50671C11.137 8.50671 12.0886 9.60113 12.0886 10.9512C12.0886 12.3012 11.137 13.3956 9.96304 13.3956Z" fill="#7B8491"/>
<path fill-rule="evenodd" clip-rule="evenodd" d="M18.0405 8.01778H16.7226C16.6688 7.85156 16.6093 7.68859 16.5441 7.52889L17.4751 6.45822C17.9724 5.8856 17.9724 4.95796 17.4751 4.38533L15.6726 2.31245C15.1747 1.74054 14.368 1.74054 13.8701 2.31245L12.9391 3.38311C12.8002 3.31141 12.6585 3.24296 12.5139 3.17778V1.66222C12.5139 0.852206 11.9429 0.195557 11.2386 0.195557H8.68785C7.98349 0.195557 7.41249 0.852206 7.41249 1.66222V3.17778C7.26794 3.2397 7.12624 3.30815 6.98736 3.38311L6.05635 2.31245C5.55842 1.74054 4.75177 1.74054 4.25384 2.31245L2.45133 4.38533C1.95401 4.95796 1.95401 5.8856 2.45133 6.45822L3.37384 7.52889C3.31149 7.68859 3.25197 7.85156 3.19529 8.01778H1.87741C1.17305 8.01778 0.602051 8.67443 0.602051 9.48445V12.4178C0.602051 13.2278 1.17305 13.8844 1.87741 13.8844H3.19529C3.24914 14.0507 3.30865 14.2136 3.37384 14.3733L2.44282 15.444C1.94551 16.0166 1.94551 16.9443 2.44282 17.5169L4.24534 19.5898C4.74327 20.1617 5.54992 20.1617 6.04785 19.5898L6.97886 18.5191C7.11774 18.5908 7.25944 18.6593 7.40398 18.7244V20.24C7.40398 21.05 7.97498 21.7067 8.67935 21.7067H11.2301C11.9344 21.7067 12.5054 21.05 12.5054 20.24V18.7244C12.65 18.6625 12.7917 18.5941 12.9306 18.5191L13.8616 19.5898C14.3595 20.1617 15.1661 20.1617 15.6641 19.5898L17.4666 17.5169C17.9639 16.9443 17.9639 16.0166 17.4666 15.444L16.5526 14.3733C16.6149 14.2136 16.6745 14.0507 16.7311 13.8844H18.049C18.7534 13.8844 19.3244 13.2278 19.3244 12.4178V9.48445C19.3244 9.09376 19.1888 8.71922 18.9478 8.44388C18.7068 8.16855 18.3802 8.01517 18.0405 8.01778ZM18.0404 12.4178H15.7746C15.6236 13.2067 15.3515 13.9583 14.9711 14.6373L16.5738 16.4805L14.7713 18.5533L13.1516 16.7102C12.5611 17.1477 11.9075 17.4606 11.2215 17.6342V20.24H8.67078V17.6342C7.98479 17.4606 7.33122 17.1477 6.74074 16.7102L5.13803 18.5533L3.33552 16.4805L4.93822 14.6373C4.55782 13.9583 4.28573 13.2067 4.13474 12.4178H1.88586V9.48445H4.15175C4.30274 8.69557 4.57482 7.94395 4.95523 7.2649L3.35252 5.42179L5.15504 3.3489L6.75774 5.19201C7.34822 4.75454 8.0018 4.44164 8.68779 4.26801V1.66223H11.2385V4.26801C11.9245 4.44164 12.5781 4.75454 13.1686 5.19201L14.7713 3.3489L16.5738 5.42179L14.9711 7.2649C15.3515 7.94395 15.6236 8.69557 15.7746 9.48445H18.0404V12.4178Z" fill="#7B8491"/>
</svg>
